<?xml version="1.0" standalone="no"?>
<!DOCTYPE svg PUBLIC "-//W3C//DTD SVG 20010904//EN"
 "http://www.w3.org/TR/2001/REC-SVG-20010904/DTD/svg10.dtd">
<svg version="1.0" xmlns="http://www.w3.org/2000/svg"
 width="1134.000000pt" height="1134.000000pt" viewBox="0 0 1134.000000 1134.000000"
 preserveAspectRatio="xMidYMid meet">
<metadata>
Created by potrace 1.14, written by Peter Selinger 2001-2017
</metadata>
<g transform="translate(0.000000,1134.000000) scale(0.100000,-0.100000)"
fill="#000000" stroke="none">
<path d="M20 5670 l0 -5650 5650 0 5650 0 0 5650 0 5650 -5650 0 -5650 0 0
-5650z m8684 3747 l20 -28 -354 -357 c-195 -196 -1030 -1033 -1855 -1859
l-1500 -1503 960 -962 c528 -530 1362 -1366 1854 -1859 l894 -897 -19 -31
c-10 -17 -22 -31 -27 -31 -5 0 -1705 850 -3779 1889 l-3771 1889 709 356 c390
195 2086 1046 3769 1890 1683 843 3064 1533 3069 1532 6 -1 19 -14 30 -29z"/>
<path d="M8457 9245 c-8 -8 -17 -12 -21 -10 -3 3 -4 2 -1 -2 3 -3 -3 -16 -12
-27 -10 -12 -1 -5 20 13 20 19 37 36 37 38 0 7 -9 2 -23 -12z"/>
<path d="M5555 7794 c-517 -260 -944 -475 -949 -477 -6 -2 16 -61 47 -131 71
-159 154 -398 200 -581 58 -224 88 -414 115 -731 l7 -80 763 1234 c419 679
761 1236 760 1237 -2 2 -426 -210 -943 -471z"/>
<path d="M2913 6472 c-876 -438 -1593 -799 -1593 -802 0 -3 721 -366 1601
-808 l1600 -803 35 78 c162 354 268 747 316 1168 19 166 16 599 -6 775 -32
269 -95 547 -177 787 -55 160 -159 403 -173 402 -6 0 -728 -359 -1603 -797z"/>
<path d="M5356 6141 c-77 -77 -144 -137 -149 -134 -6 3 -7 1 -3 -5 4 -7 3 -12
-3 -12 -6 0 -15 -10 -22 -22 -6 -13 64 51 155 142 91 91 166 166 166 167 0 7
-15 -7 -144 -136z"/>
<path d="M4966 5443 c-32 -453 -130 -863 -302 -1267 -35 -82 -64 -151 -64
-152 0 -2 428 -218 951 -480 888 -444 950 -473 932 -441 -46 78 -1496 2423
-1503 2430 -4 5 -11 -36 -14 -90z"/>
<path d="M5277 5213 c63 -104 120 -192 126 -198 11 -11 -14 34 -83 145 -58 93
-83 140 -73 140 4 0 419 -411 922 -912 l916 -913 -960 963 c-528 529 -961 962
-962 962 -1 0 50 -84 114 -187z"/>
<path d="M5420 4980 c6 -11 13 -20 16 -20 2 0 0 9 -6 20 -6 11 -13 20 -16 20
-2 0 0 -9 6 -20z"/>
<path d="M5470 4900 c6 -11 13 -20 16 -20 2 0 0 9 -6 20 -6 11 -13 20 -16 20
-2 0 0 -9 6 -20z"/>
<path d="M5500 4850 c6 -11 13 -20 16 -20 2 0 0 9 -6 20 -6 11 -13 20 -16 20
-2 0 0 -9 6 -20z"/>
<path d="M5550 4770 c6 -11 13 -20 16 -20 2 0 0 9 -6 20 -6 11 -13 20 -16 20
-2 0 0 -9 6 -20z"/>
<path d="M5580 4720 c6 -11 13 -20 16 -20 2 0 0 9 -6 20 -6 11 -13 20 -16 20
-2 0 0 -9 6 -20z"/>
<path d="M5630 4640 c6 -11 13 -20 16 -20 2 0 0 9 -6 20 -6 11 -13 20 -16 20
-2 0 0 -9 6 -20z"/>
<path d="M5710 4510 c6 -11 13 -20 16 -20 2 0 0 9 -6 20 -6 11 -13 20 -16 20
-2 0 0 -9 6 -20z"/>
<path d="M7850 2706 c0 -2 8 -10 18 -17 15 -13 16 -12 3 4 -13 16 -21 21 -21
13z"/>
<path d="M7925 2630 c10 -11 20 -20 23 -20 3 0 -3 9 -13 20 -10 11 -20 20 -23
20 -3 0 3 -9 13 -20z"/>
<path d="M8186 2367 c120 -125 221 -233 223 -238 2 -7 -4 -7 -18 0 -11 7 -21
9 -21 7 0 -3 24 -18 53 -32 50 -26 45 -19 -120 152 -94 98 -209 215 -254 259
-45 44 16 -23 137 -148z"/>
</g>
</svg>
